<svg width="768" height="96" xmlns="http://www.w3.org/2000/svg" xmlns:xlink="http://www.w3.org/1999/xlink" overflow="hidden"><defs><clipPath id="clip0"><rect x="0" y="0" width="768" height="96"/></clipPath><clipPath id="clip1"><path d="M-146.546-73.2916 110.877-243.777 253.998-27.6724-3.42516 142.813Z" fill-rule="evenodd" clip-rule="evenodd"/></clipPath><clipPath id="clip2"><path d="M-146.546-73.2916 110.877-243.777 253.998-27.6724-3.42516 142.813Z" fill-rule="evenodd" clip-rule="evenodd"/></clipPath><clipPath id="clip3"><path d="M-146.546-73.2916 110.877-243.777 253.998-27.6724-3.42516 142.813Z" fill-rule="evenodd" clip-rule="evenodd"/></clipPath></defs><g clip-path="url(#clip0)"><rect x="0" y="0" width="768" height="96" fill="#FFFFFF"/><text fill="#45A5ED" font-family="Trajan Pro,Trajan Pro_MSFontService,sans-serif" font-weight="700" font-size="24" transform="translate(99.5563 85)">m</text><text fill="#45A5ED" font-family="Trajan Pro,Trajan Pro_MSFontService,sans-serif" font-weight="400" font-size="24" transform="translate(121.723 85)">olecular</text><text fill="#45A5ED" font-family="Trajan Pro,Trajan Pro_MSFontService,sans-serif" font-weight="700" font-size="24" transform="translate(252.956 85)">i</text><text fill="#45A5ED" font-family="Trajan Pro,Trajan Pro_MSFontService,sans-serif" font-weight="400" font-size="24" transform="translate(262.79 85)">ntera</text><text fill="#45A5ED" font-family="Trajan Pro,Trajan Pro_MSFontService,sans-serif" font-weight="700" font-size="24" transform="translate(341.91 85)">c</text><text fill="#45A5ED" font-family="Trajan Pro,Trajan Pro_MSFontService,sans-serif" font-weight="400" font-size="24" transform="translate(358.91 85)">tion ana</text><text fill="#45A5ED" font-family="Trajan Pro,Trajan Pro_MSFontService,sans-serif" font-weight="700" font-size="24" transform="translate(479.096 85)">l</text><text fill="#45A5ED" font-family="Trajan Pro,Trajan Pro_MSFontService,sans-serif" font-weight="400" font-size="24" transform="translate(492.263 85)">ysis t</text><text fill="#45A5ED" font-family="Trajan Pro,Trajan Pro_MSFontService,sans-serif" font-weight="700" font-size="24" transform="translate(562.45 85)">o</text><text fill="#45A5ED" font-family="Trajan Pro,Trajan Pro_MSFontService,sans-serif" font-weight="400" font-size="24" transform="translate(582.283 85)">olki</text><text fill="#45A5ED" font-family="Trajan Pro,Trajan Pro_MSFontService,sans-serif" font-weight="700" font-size="24" transform="translate(639.136 85)">t</text><text fill="#45A5ED" font-family="Trajan Pro,Trajan Pro_MSFontService,sans-serif" font-weight="400" font-size="24" transform="translate(654.303 85)">s</text><path d="M220.5 63.5001 551.823 63.5002" stroke="#1480D1" stroke-miterlimit="8" fill="none" fill-rule="evenodd"/><text fill="#1480D1" font-family="Trajan Pro,Trajan Pro_MSFontService,sans-serif" font-weight="400" font-size="53" transform="translate(280.028 55)">miclot</text><g clip-path="url(#clip1)"><g clip-path="url(#clip2)"><g clip-path="url(#clip3)"><path d="M114.25 181.98C116.718 180.873 119.205 179.801 121.692 178.74L119.021 177.846C86.63 166.933 53.1579 159.538 19.1835 155.79L13.5135 155.218 13.5135 160.65 18.6165 161.166C51.131 164.763 83.1821 171.738 114.25 181.98Z" fill="#DAEDFB" transform="matrix(0.993144 -0.657736 0.552164 0.833736 -146.546 -73.2916)"/><path d="M64.26 140.497 69.66 141.623C97.7119 147.574 125.158 156.088 151.654 167.057 154.193 166.166 156.74 165.295 159.295 164.443 130.776 152.204 101.125 142.794 70.767 136.35L65.34 135.208 64.8 135.108 64.8 117.002C69.8433 116.952 74.719 115.183 78.6213 111.988 84.6801 106.167 83.6541 95.7879 83.6082 95.3532L83.3841 93.2661 81.3078 92.9664C78.0891 92.5903 74.8294 92.7877 71.6796 93.5496 72.06 92.2563 72.3052 90.9271 72.4113 89.5833 72.4113 81.3132 64.3788 73.9233 64.0413 73.602L62.2242 71.9496 60.4071 73.602C60.0642 73.9125 52.0371 81.3132 52.0371 89.7777 52.1321 91.0416 52.3463 92.2936 52.677 93.5172 49.4894 92.7399 46.1878 92.5422 42.93 92.934L40.8564 93.2364 40.635 95.3181C40.5891 95.7582 39.555 106.132 45.6165 111.953 49.5086 115.138 54.371 116.9 59.4 116.948L59.4 134.101C46.1268 131.628 32.6268 129.67 19.1349 128.342L13.5135 127.845 13.5135 133.267 18.6435 133.718C33.9444 135.227 49.2993 137.508 64.26 140.497ZM78.3 98.1747C78.4264 101.79 77.2106 105.324 74.8872 108.097 72.3111 110.141 69.1635 111.333 65.88 111.51 65.5933 109.206 65.6351 106.872 66.0042 104.579 66.4959 103.307 67.264 102.159 68.2533 101.22 71.0262 99.0546 74.4935 97.9749 78.0057 98.1828ZM62.235 79.5042C64.8491 82.1945 66.531 85.6526 67.0329 89.37 66.7275 92.6645 65.2973 95.7536 62.9829 98.118 62.3916 98.2225 61.7822 98.1412 61.2387 97.8858 58.968 95.6931 57.6083 92.7242 57.4317 89.5725 57.9007 85.7849 59.5863 82.252 62.235 79.5042ZM58.5738 111.47C55.2255 111.323 52.0074 110.13 49.3722 108.059 47.0532 105.285 45.839 101.753 45.9621 98.1396 49.5488 97.8774 53.1077 98.9337 55.971 101.11 56.9757 102.151 57.7778 103.371 58.3362 104.706 58.9324 106.912 59.0136 109.227 58.5738 111.47Z" fill="#DAEDFB" transform="matrix(0.993144 -0.657736 0.552164 0.833736 -146.546 -73.2916)"/><path d="M76.2777 198.145 79.5177 198.925 79.974 199.057C82.2293 197.821 84.4938 196.603 86.7672 195.404L80.9028 193.709 77.5413 192.899C58.3124 188.316 38.8179 184.931 19.17 182.763L13.527 182.25 13.527 187.672 18.63 188.133C38.0341 190.278 57.2867 193.622 76.2777 198.145Z" fill="#DAEDFB" transform="matrix(0.993144 -0.657736 0.552164 0.833736 -146.546 -73.2916)"/><path d="M41.3964 217.296C43.1082 217.542 45.6543 217.836 48.1464 218.13 50.5513 216.559 52.9705 215.011 55.404 213.486 52.6527 213.197 45.5733 212.441 42.174 211.95L38.7585 211.469C32.8995 210.643 26.6841 209.917 19.1835 209.18L13.527 208.67 13.527 214.091 18.6786 214.555C26.0793 215.285 32.2218 216.003 38.0052 216.815Z" fill="#DAEDFB" transform="matrix(0.993144 -0.657736 0.552164 0.833736 -146.546 -73.2916)"/><path d="M125.963 18.5112 131.363 18.5112 131.363 32.0112 125.963 32.0112Z" fill="#DAEDFB" transform="matrix(0.993144 -0.657736 0.552164 0.833736 -146.546 -73.2916)"/><path d="M125.963 75.6 131.363 75.6 131.363 89.1 125.963 89.1Z" fill="#DAEDFB" transform="matrix(0.993144 -0.657736 0.552164 0.833736 -146.546 -73.2916)"/><path d="M150.458 51.1056 163.958 51.1056 163.958 56.5056 150.458 56.5056Z" fill="#DAEDFB" transform="matrix(0.993144 -0.657736 0.552164 0.833736 -146.546 -73.2916)"/><path d="M93.3687 51.1056 106.869 51.1056 106.869 56.5056 93.3687 56.5056Z" fill="#DAEDFB" transform="matrix(0.993144 -0.657736 0.552164 0.833736 -146.546 -73.2916)"/><path d="M153.913 33.4912 168.535 33.4912 168.535 39.3401 153.913 39.3401Z" fill="#DAEDFB" transform="matrix(0.287885 -0.973677 1.00882 0.114898 -63.3054 9.63144)"/><path d="M110.186 77.218 124.808 77.218 124.808 83.067 110.186 83.067Z" fill="#DAEDFB" transform="matrix(0.287885 -0.973677 1.00882 0.114898 -112.632 22.2435)"/><path d="M158.299 72.8284 164.148 72.8284 164.148 87.4508 158.299 87.4508Z" fill="#DAEDFB" transform="matrix(0.287885 -0.973677 1.00882 0.114898 -85.1257 38.2636)"/><path d="M114.576 29.1046 120.425 29.1046 120.425 43.7271 114.576 43.7271Z" fill="#DAEDFB" transform="matrix(0.287848 -0.973675 1.00883 0.114863 -90.8073 -6.38819)"/><path d="M128.663 70.1568C137.61 70.1568 144.863 62.9038 144.863 53.9568 144.863 45.0098 137.61 37.7568 128.663 37.7568 119.716 37.7568 112.463 45.0098 112.463 53.9568 112.463 62.9038 119.716 70.1568 128.663 70.1568ZM128.663 43.1568C134.628 43.1568 139.463 47.9922 139.463 53.9568 139.463 59.9214 134.628 64.7568 128.663 64.7568 122.699 64.7568 117.863 59.9214 117.863 53.9568 117.864 47.9909 122.697 43.1536 128.663 43.146Z" fill="#DAEDFB" transform="matrix(0.993144 -0.657736 0.552164 0.833736 -146.546 -73.2916)"/><path d="M87.0291 237.6 98.4555 237.6 103.083 235.119C147.635 211.195 195.824 194.776 245.714 186.519L245.714 181.051C194.928 189.355 145.87 206.017 100.532 230.359Z" fill="#DAEDFB" transform="matrix(0.993144 -0.657736 0.552164 0.833736 -146.546 -73.2916)"/><path d="M149.896 237.6 165.51 237.6 186.665 229.808C205.992 223.451 225.714 218.365 245.705 214.583L245.705 209.08C225.107 212.935 204.787 218.156 184.882 224.71Z" fill="#DAEDFB" transform="matrix(0.993144 -0.657736 0.552164 0.833736 -146.546 -73.2916)"/><path d="M215.46 157.68 210.6 158.701 210.6 145.73C215.643 145.679 220.518 143.91 224.421 140.716 230.48 134.895 229.454 124.516 229.408 124.081L229.184 121.994 227.108 121.694C223.889 121.318 220.629 121.516 217.48 122.278 217.86 120.984 218.105 119.655 218.211 118.311 218.211 110.041 210.179 102.651 209.841 102.33L208.024 100.678 206.207 102.33C205.864 102.641 197.837 110.041 197.837 118.506 197.932 119.77 198.146 121.022 198.477 122.245 195.289 121.468 191.988 121.27 188.73 121.662L186.656 121.964 186.435 124.046C186.389 124.486 185.355 134.86 191.416 140.681 195.303 143.866 200.162 145.628 205.187 145.676L205.187 159.953C144.4 173.944 86.9721 199.792 36.1935 236.018L34.0038 237.6 43.416 237.6C93.9586 202.306 150.968 177.331 211.178 164.103L216.578 162.969C226.568 160.89 236.331 159.189 245.716 157.839L245.716 152.385C235.98 153.76 225.844 155.52 215.46 157.68ZM224.1 126.9C224.226 130.515 223.011 134.05 220.687 136.822 218.111 138.862 214.964 140.051 211.683 140.225 211.396 137.92 211.438 135.586 211.807 133.294 212.298 132.021 213.066 130.873 214.056 129.935 216.83 127.77 220.298 126.69 223.811 126.9ZM208.035 108.232C210.651 110.925 212.333 114.386 212.833 118.106 212.527 121.4 211.097 124.489 208.783 126.854 208.192 126.959 207.582 126.878 207.039 126.622 204.768 124.429 203.408 121.46 203.232 118.309 203.699 114.518 205.385 110.982 208.035 108.232ZM204.374 140.197C201.026 140.051 197.807 138.858 195.172 136.787 192.853 134.013 191.639 130.481 191.762 126.868 195.35 126.594 198.913 127.652 201.771 129.838 202.776 130.879 203.578 132.099 204.136 133.434 204.732 135.64 204.814 137.955 204.374 140.197Z" fill="#DAEDFB" transform="matrix(0.993144 -0.657736 0.552164 0.833736 -146.546 -73.2916)"/></g></g></g></g></svg>